<svg height="512pt" viewBox="0 -71 512 512" width="512pt" xmlns="http://www.w3.org/2000/svg"><path d="m436 310h-360c-24.8125 0-45-20.1875-45-45v-220c0-24.8125 20.1875-45 45-45h360c24.8125 0 45 20.1875 45 45v220c0 24.8125-20.1875 45-45 45zm0 0" fill="#cdd7d7"/><path d="m436 0h-180v310h180c24.8125 0 45-20.1875 45-45v-220c0-24.8125-20.1875-45-45-45zm0 0" fill="#abb1b1"/><path d="m76 30c-8.269531 0-15 6.730469-15 15v220c0 8.269531 6.730469 15 15 15h360c8.269531 0 15-6.730469 15-15v-220c0-8.269531-6.730469-15-15-15zm0 0" fill="#78e0ea"/><path d="m436 30h-180v250h180c8.269531 0 15-6.730469 15-15v-220c0-8.269531-6.730469-15-15-15zm0 0" fill="#3cccdd"/><path d="m149 241c-24.8125 0-45-20.1875-45-45v-60c0-24.8125 20.1875-45 45-45s45 20.1875 45 45c0 8.285156-6.714844 15-15 15s-15-6.714844-15-15c0-8.269531-6.730469-15-15-15s-15 6.730469-15 15v60c0 8.269531 6.730469 15 15 15s15-6.730469 15-15c0-8.285156 6.714844-15 15-15s15 6.714844 15 15c0 24.8125-20.1875 45-45 45zm0 0" fill="#5a5a6e"/><path d="m261 241h-30c-8.285156 0-15-6.714844-15-15s6.714844-15 15-15h30c8.269531 0 15-6.730469 15-15s-6.730469-15-15-15c-24.8125 0-45-20.1875-45-45s20.1875-45 45-45h30c8.285156 0 15 6.714844 15 15s-6.714844 15-15 15h-30c-8.269531 0-15 6.730469-15 15s6.730469 15 15 15c24.8125 0 45 20.1875 45 45s-20.1875 45-45 45zm0 0" fill="#5a5a6e"/><path d="m371 241h-30c-8.285156 0-15-6.714844-15-15s6.714844-15 15-15h30c8.269531 0 15-6.730469 15-15s-6.730469-15-15-15c-24.8125 0-45-20.1875-45-45s20.1875-45 45-45h30c8.285156 0 15 6.714844 15 15s-6.714844 15-15 15h-30c-8.269531 0-15 6.730469-15 15s6.730469 15 15 15c24.8125 0 45 20.1875 45 45s-20.1875 45-45 45zm0 0" fill="#46465a"/><path d="m467 370h-422c-24.8125 0-45-20.1875-45-45v-30c0-8.285156 6.714844-15 15-15h482c8.285156 0 15 6.714844 15 15v30c0 24.8125-20.1875 45-45 45zm0 0" fill="#e6f0f0"/><path d="m497 280h-241v90h211c24.8125 0 45-20.1875 45-45v-30c0-8.285156-6.714844-15-15-15zm0 0" fill="#cdd7d7"/><g fill="#46465a"><path d="m261 121h30c8.285156 0 15-6.714844 15-15s-6.714844-15-15-15h-30c-1.691406 0-3.355469.101562-5 .285156v30.589844c1.566406-.554688 3.246094-.875 5-.875zm0 0"/><path d="m261 151c-1.753906 0-3.433594-.320312-5-.875v30.589844c1.644531.183594 3.308594.285156 5 .285156 8.269531 0 15 6.730469 15 15s-6.730469 15-15 15h-5v30h5c24.8125 0 45-20.1875 45-45s-20.1875-45-45-45zm0 0"/></g></svg>